<svg xmlns="http://www.w3.org/2000/svg" viewBox="0 0 448 512"><!--!Font Awesome Free 6.6.0 by @fontawesome - https://fontawesome.com License - https://fontawesome.com/license/free Copyright 2024 Fonticons, Inc.--><path fill="#ffffff" d="
M400 32H48C21.5 32 0 53.5 0 80v352c0 26.5 21.5 48 48 48h352c26.5 0 48-21.5 48-48V80c0-26.5-21.5-48-48-48zM227.8 246.26C243.46 215.84 286.06 159.14 325.72 131.18 363.64 104.36 378.16 109.04 387.64 113.3 398.62 118.22 400.6 135.08 400.6 145.04S395.14 226.4 391.6 238.34C379.84 277.7 338.14 291.02 299.68 286.76 297.7 286.52 295.72 286.22 293.68 285.98 295.66 286.28 297.7 286.52 299.68 286.76 356.02 295.1 400.6 326.66 339.16 388.7 257.32 460.16 241.54 372.68 227.8 326.66 214.06 372.68 187.36 463.46 115.18 388.7 49.54 315.68 99.58 295.16 155.92 286.76 157.96 286.52 159.94 286.22 161.92 285.92 159.88 286.22 157.9 286.46 155.92 286.76 117.46 291.08 75.7 277.76 64 238.34 60.46 226.4 55 154.94 55 145.04 55 135.14 56.98 118.28 67.96 113.3 77.5 108.98 91.96 104.36 129.94 131.18 169.54 159.14 212.14 215.84 227.8 246.26ZM299.68 286.82C297.7 286.58 295.72 286.28 293.68 286.04 295.66 286.34 297.7 286.58 299.68 286.82Z
"/></svg>
