<svg xmlns="http://www.w3.org/2000/svg" viewBox="0 0 50 50">    <path d="M 11 7 C 8.24 7 6 9.24 6 12 L 6 38 C 6 40.76 8.24 43 11 43 L 39 43 C 41.76 43 44 40.76 44 38 L 44 12 C 44 9.24 41.76 7 39 7 L 11 7 z M 27 13 C 28.65 13 30 14.35 30 16 L 30 17 L 32 17 L 32 16 C 32 14.35 33.35 13 35 13 C 36.65 13 38 14.35 38 16 C 38 17.65 36.65 19 35 19 L 34 19 L 34 21 L 35 21 C 36.65 21 38 22.35 38 24 C 38 25.65 36.65 27 35 27 C 33.35 27 32 25.65 32 24 L 32 23 L 30 23 L 30 24 C 30 25.65 28.65 27 27 27 C 25.35 27 24 25.65 24 24 C 24 22.35 25.35 21 27 21 L 28 21 L 28 19 L 27 19 C 25.35 19 24 17.65 24 16 C 24 14.35 25.35 13 27 13 z M 27 15 C 26.45 15 26 15.45 26 16 C 26 16.55 26.45 17 27 17 L 28 17 L 28 16 C 28 15.45 27.55 15 27 15 z M 35 15 C 34.45 15 34 15.45 34 16 L 34 17 L 35 17 C 35.55 17 36 16.55 36 16 C 36 15.45 35.55 15 35 15 z M 30 19 L 30 21 L 32 21 L 32 19 L 30 19 z M 27 23 C 26.45 23 26 23.45 26 24 C 26 24.55 26.45 25 27 25 C 27.55 25 28 24.55 28 24 L 28 23 L 27 23 z M 34 23 L 34 24 C 34 24.55 34.45 25 35 25 C 35.55 25 36 24.55 36 24 C 36 23.45 35.55 23 35 23 L 34 23 z"></path></svg>