<svg aria-hidden="true" focusable="false" data-prefix="fab" data-icon="discord-square" role="img" xmlns="http://www.w3.org/2000/svg" viewBox="0 0 448 512" class="svg-inline--fa fa-discord-square fa-w-14 fa-9x"><path fill="#ffffff" d="M400 32C426.5 32 448 53.5 448 80V432C448 458.5 426.5 480 400 480H48C21.5 480 0 458.5 0 432V80C0 53.5 21.5 32 48 32H400ZM347.9725 132.729a.9075.9075 90 00-.484-.4235A293.4855 293.4855 90 00275.1305 109.86a1.089 1.089 90 00-1.1495.5445 204.1875 204.1875 90 00-9.0145 18.513 270.919 270.919 90 00-81.312 0 187.2475 187.2475 90 00-9.1355-18.513 1.1495 1.1495 90 00-1.1495-.5445A292.6385 292.6385 90 00100.8905 132.3055a1.0285 1.0285 90 00-.484.4235C54.3055 201.6385 41.661 268.7935 47.832 335.162a1.21 1.21 90 00.484.847A295.0585 295.0585 90 00137.13 380.8395a1.1495 1.1495 90 001.2705-.4235A210.661 210.661 90 00156.5505 350.892a1.1495 1.1495 90 00-.605-1.573 194.326 194.326 90 01-27.7695-13.2495 1.1495 1.1495 90 01-.121-1.8755c1.8755-1.3915 3.751-2.8435 5.5055-4.2955a1.089 1.089 90 011.1495-.1815c58.201 26.5595 121.242 26.5595 178.7775 0a1.089 1.089 90 011.1495.121c1.7545 1.452 3.63 2.9645 5.5055 4.356a1.1495 1.1495 90 01-.121 1.8755 182.347 182.347 90 01-27.7695 13.189 1.1495 1.1495 90 00-.605 1.573 236.6155 236.6155 90 0018.15 29.524 1.1495 1.1495 90 001.2705.4235A294.03 294.03 90 00400.1235 335.9485a1.1495 1.1495 90 00.484-.847C407.9885 258.448 388.1445 191.8375 347.9725 132.729zM165.2625 294.748c-17.545 0-31.944-16.093-31.944-35.816S147.4755 223.0555 165.2625 223.0555c17.9685 0 32.2465 16.214 31.944 35.816C197.2065 278.655 183.0495 294.748 165.2625 294.748zm118.217 0c-17.545 0-31.944-16.093-31.944-35.816S265.632 223.0555 283.4795 223.0555c17.9685 0 32.2465 16.214 31.944 35.816C315.4235 278.655 301.3875 294.748 283.4795 294.748z" class=""></path></svg>
