<?xml version="1.0" encoding="UTF-8"?>
<svg aria-hidden="true" focusable="false" data-prefix="fab" data-icon="discord-square" role="img" xmlns="http://www.w3.org/2000/svg" viewBox="0 0 512 512" width="50" preserveAspectRatio="xMidYMin slice" class="svg-inline--fa fa-discord-square fa-w-14 fa-9x">
<path d="M0 0 C0.71436816 -0.00235223 1.42873632 -0.00470446 2.16475201 -0.00712797 C4.56487977 -0.01379902 6.96495317 -0.01336032 9.36508942 -0.01294994 C11.10080628 -0.01624975 12.83652237 -0.01997557 14.57223749 -0.02409142 C19.34730807 -0.0341063 24.12236608 -0.0378274 28.89744568 -0.04048073 C34.04558089 -0.04438531 39.19370616 -0.05396356 44.34183502 -0.0626936 C56.77744374 -0.08245386 69.21305328 -0.09252376 81.64867377 -0.10142139 C87.50562833 -0.10580508 93.36258198 -0.11117169 99.21953583 -0.11641026 C118.69087028 -0.13342225 138.16220418 -0.14791621 157.63354492 -0.155159 C162.68619029 -0.15706887 167.73883566 -0.15898921 172.79148102 -0.16094494 C174.67518385 -0.16167055 174.67518385 -0.16167055 176.59694129 -0.16241082 C196.93802799 -0.17071031 217.27905587 -0.19604602 237.62011689 -0.22852562 C258.50635834 -0.26160368 279.3925699 -0.27960845 300.27883768 -0.28280324 C312.00466211 -0.28496766 323.73040076 -0.29370644 335.45619965 -0.31926441 C345.44290949 -0.34098159 355.42951272 -0.34901678 365.41624349 -0.33929763 C370.50949229 -0.3347559 375.60252117 -0.33663196 380.69573975 -0.35605907 C385.364346 -0.37371239 390.03257225 -0.37267538 394.70118266 -0.35716178 C396.38429973 -0.35478901 398.06744325 -0.359092 399.75051993 -0.37099043 C417.93801817 -0.49153493 432.0681552 4.07661364 445.50632477 16.64984608 C454.7756569 26.5579053 459.94579856 38.80486001 459.9647646 52.30367756 C459.96711683 53.01804572 459.96946906 53.73241388 459.97189257 54.46842957 C459.97856362 56.86855733 459.97812492 59.26863073 459.97771454 61.66876698 C459.98101435 63.40448384 459.98474016 65.14019993 459.98885602 66.87591505 C459.99887089 71.65098563 460.00259199 76.42604364 460.00524533 81.20112324 C460.00914991 86.34925845 460.01872816 91.49738372 460.02745819 96.64551258 C460.04721846 109.0811213 460.05728835 121.51673083 460.06618598 133.95235133 C460.07056968 139.80930589 460.07593629 145.66625954 460.08117485 151.52321339 C460.09818685 170.99454784 460.1126808 190.46588173 460.11992359 209.93722248 C460.12183347 214.98986785 460.1237538 220.04251322 460.12570953 225.09515858 C460.12619327 226.35096047 460.12667701 227.60676236 460.12717541 228.90061885 C460.13547491 249.24170555 460.16081061 269.58273343 460.19329021 289.92379445 C460.22636828 310.8100359 460.24437304 331.69624746 460.24756783 352.58251524 C460.24973225 364.30833967 460.25847103 376.03407832 460.28402901 387.7598772 C460.30574618 397.74658705 460.31378138 407.73319028 460.30406222 417.71992105 C460.29952049 422.81316985 460.30139655 427.90619873 460.32082367 432.9994173 C460.33847698 437.66802356 460.33743998 442.3362498 460.32192638 447.00486022 C460.3195536 448.68797728 460.3238566 450.37112081 460.33575503 452.05419749 C460.45629952 470.24169573 455.88815095 484.37183276 443.31491852 497.81000233 C433.40685929 507.07933446 421.15990459 512.24947611 407.66108704 512.26844215 C406.58953479 512.2719705 406.58953479 512.2719705 405.49633503 512.27557012 C403.09620726 512.28224118 400.69613387 512.28180247 398.29599762 512.2813921 C396.56028076 512.2846919 394.82456466 512.28841772 393.08884954 512.29253358 C388.31377896 512.30254845 383.53872095 512.30626955 378.76364136 512.30892289 C373.61550615 512.31282747 368.46738088 512.32240572 363.31925201 512.33113575 C350.88364329 512.35089602 338.44803376 512.36096591 326.01241326 512.36986354 C320.15545871 512.37424724 314.29850505 512.37961385 308.44155121 512.38485241 C288.97021675 512.40186441 269.49888286 512.41635836 250.02754211 512.42360115 C244.97489674 512.42551103 239.92225137 512.42743136 234.86960602 512.42938709 C233.61380413 512.42987083 232.35800224 512.43035457 231.06414574 512.43085297 C210.72305904 512.43915247 190.38203116 512.46448817 170.04097015 512.49696777 C149.1547287 512.53004584 128.26851714 512.5480506 107.38224936 512.55124539 C95.65642493 512.55340981 83.93068628 512.56214859 72.20488739 512.58770657 C62.21817755 512.60942374 52.23157432 512.61745894 42.24484354 512.60773978 C37.15159474 512.60319805 32.05856587 512.60507411 26.96534729 512.62450123 C22.29674103 512.64215454 17.62851479 512.64111754 12.95990437 512.62560394 C11.27678731 512.62323116 9.59364378 512.62753415 7.9105671 512.63943259 C-10.27693113 512.75997708 -24.40706817 508.19182851 -37.84523773 495.61859608 C-47.11456987 485.71053685 -52.28471152 473.46358214 -52.30367756 459.9647646 C-52.30602979 459.25039643 -52.30838202 458.53602827 -52.31080553 457.80001259 C-52.31747658 455.39988482 -52.31703788 452.99981143 -52.3166275 450.59967518 C-52.31992731 448.86395832 -52.32365313 447.12824222 -52.32776898 445.3925271 C-52.33778386 440.61745652 -52.34150496 435.84239851 -52.34415829 431.06731892 C-52.34806287 425.91918371 -52.35764112 420.77105844 -52.36637115 415.62292957 C-52.38613142 403.18732085 -52.39620132 390.75171132 -52.40509894 378.31609082 C-52.40948264 372.45913626 -52.41484925 366.60218261 -52.42008781 360.74522877 C-52.43709981 341.27389431 -52.45159377 321.80256042 -52.45883656 302.33121967 C-52.46074643 297.2785743 -52.46266677 292.22592893 -52.4646225 287.17328358 C-52.46510624 285.91748169 -52.46558998 284.6616798 -52.46608838 283.3678233 C-52.47438787 263.0267366 -52.49972358 242.68570872 -52.53220318 222.34464771 C-52.56528124 201.45840626 -52.583286 180.57219469 -52.5864808 159.68592691 C-52.58864522 147.96010249 -52.59738399 136.23436384 -52.62294197 124.50856495 C-52.64465915 114.52185511 -52.65269434 104.53525188 -52.64297519 94.5485211 C-52.63843346 89.4552723 -52.64030952 84.36224342 -52.65973663 79.26902485 C-52.67738994 74.60041859 -52.67635294 69.93219235 -52.66083934 65.26358193 C-52.65846657 63.58046487 -52.66276956 61.89732134 -52.67466799 60.21424466 C-52.79521249 42.02674642 -48.22706392 27.89660939 -35.65383148 14.45843983 C-25.74577226 5.18910769 -13.49881755 0.01896604 0 0 Z M105.51804352 126.63422108 C104.83629059 126.86106586 104.15453766 127.08791065 103.45212555 127.32162952 C96.24752623 129.73188955 89.1165327 132.31348006 82.08835602 135.20062733 C80.97476715 135.65639149 79.86117828 136.11215565 78.7138443 136.58173084 C73.70345653 139.27953405 71.5211416 143.27547115 68.83054352 148.13422108 C67.84120133 149.69464697 66.85180649 151.25503971 65.86154938 152.81488514 C40.44225156 193.65374808 24.11827433 240.17146479 19.83054352 288.13422108 C19.66425446 289.80871326 19.66425446 289.80871326 19.49460602 291.51703358 C16.57362364 321.13682214 16.57362364 321.13682214 20.83054352 350.13422108 C22.57366679 351.65253361 22.57366679 351.65253361 24.78366852 353.06781483 C25.61978668 353.62831532 26.45590485 354.1888158 27.31735992 354.76630116 C28.22921051 355.36208973 29.1410611 355.9578783 30.08054352 356.57172108 C31.02204254 357.19135731 31.96354156 357.81099354 32.93357086 358.44940662 C57.58344257 374.49662479 84.91052392 389.58176112 113.83054352 396.13422108 C125.67006949 381.09914868 125.67006949 381.09914868 131.83054352 364.13422108 C128.02435223 362.27783881 124.21573311 360.42656478 120.40476227 358.58002186 C119.10818068 357.95089397 117.81227765 357.32036567 116.51706696 356.6884203 C114.65717341 355.78125935 112.7949121 354.87913305 110.93210602 353.97797108 C109.81142731 353.43334217 108.6907486 352.88871326 107.53610992 352.32758045 C105.01840268 350.99970009 105.01840268 350.99970009 102.83054352 351.13422108 C103.18786845 348.5436153 103.69218312 347.28854614 105.45554352 345.32172108 C108.88258116 343.60820226 111.10767234 344.40197933 114.83054352 345.13422108 C117.1064375 345.96206403 119.35653327 346.86318272 121.58054352 347.82172108 C174.45146412 369.67989967 231.73883592 368.44839828 284.83054352 348.13422108 C287.2325775 347.07745847 289.61126648 345.99363471 291.9716568 344.8471117 C294.89112199 343.72748492 296.94062407 344.10210699 299.83054352 345.13422108 C301.70554352 346.69672108 301.70554352 346.69672108 302.83054352 348.13422108 C301.83054352 351.13422108 301.83054352 351.13422108 299.68503571 352.45282459 C298.2952652 353.10142445 298.2952652 353.10142445 296.87741852 353.76312733 C295.35954742 354.47952381 295.35954742 354.47952381 293.81101227 355.21039295 C292.74495758 355.70088123 291.67890289 356.19136951 290.58054352 356.69672108 C289.52995758 357.19107655 288.47937164 357.68543201 287.39694977 358.19476795 C282.91482805 360.29380974 278.44072676 362.33053123 273.83054352 364.13422108 C275.46493378 368.59008504 277.63626623 372.6338808 279.95554352 376.75922108 C280.34862701 377.45982655 280.74171051 378.16043201 281.14670563 378.88226795 C284.62676645 384.97673057 288.55828007 390.56491453 292.83054352 396.13422108 C300.82160635 394.14853913 308.39148475 391.53927348 316.01804352 388.44672108 C317.65942291 387.78470692 317.65942291 387.78470692 319.33396149 387.10931873 C327.4360988 383.79801044 335.30261868 380.2001779 343.02732086 376.08881092 C344.85437703 375.1216041 346.69392254 374.18263215 348.53757477 373.24750233 C368.67354797 363.20009216 368.67354797 363.20009216 385.83054352 349.13422108 C402.47405363 295.01903676 376.58382081 219.48219603 351.83054352 172.13422108 C348.43162676 165.76698097 344.86101356 159.53031828 341.11814117 153.35980701 C339.97382644 151.38188265 338.99976056 149.41006308 338.06101227 147.32953358 C331.29229566 134.34215408 315.84850849 131.41565361 302.83054352 127.13422108 C301.78865875 126.78101795 300.74677399 126.42781483 299.67331696 126.06390858 C285.30569123 121.2222808 270.71008343 117.97402773 255.83054352 115.13422108 C252.53054352 121.40422108 249.23054352 127.67422108 245.83054352 134.13422108 C243.78866852 133.98984608 241.74679352 133.84547108 239.64304352 133.69672108 C237.81428423 133.56741486 235.98552044 133.43817146 234.15671539 133.30951405 C232.42795982 133.17924048 230.70020686 133.03551943 228.97312164 132.88470936 C220.54408 132.17023051 212.16380193 131.90502348 203.70554352 131.88422108 C203.02387115 131.88188465 202.34219879 131.87954823 201.63986969 131.877141 C187.56422215 131.85914354 173.77463252 133.18564174 159.83054352 135.13422108 C159.70365143 134.38696766 159.57675934 133.63971424 159.44602203 132.86981678 C158.88306919 130.36768009 158.20420223 128.59407429 156.98288727 126.36468983 C156.62517242 125.7040453 156.26745758 125.04340076 155.89890289 124.3627367 C155.5257193 123.68920155 155.15253571 123.01566639 154.76804352 122.32172108 C154.39099274 121.62884998 154.01394196 120.93597889 153.62546539 120.2221117 C152.699705 118.52293123 151.7659204 116.82812682 150.83054352 115.13422108 C136.17302039 115.13422108 119.35570166 121.99425358 105.51804352 126.63422108 Z " fill="#ffffff" transform="translate(52.169456481933594,-0.13422107696533203)"/>
<path d="M0 0 C7.03552387 4.95684637 12.56367221 12.96562041 14.375 21.4375 C16.30443685 34.95977168 14.8611859 45.82431417 7.375 57.4375 C1.41694393 64.31390306 -5.25561145 68.79181404 -14.328125 69.8828125 C-23.57659495 70.45477936 -30.94947088 68.99997422 -38.625 63.4375 C-47.30210827 55.68804311 -51.76745089 46.56964581 -52.84765625 35.06640625 C-53.27375014 23.48776791 -49.86858765 12.2380274 -41.9609375 3.625 C-29.68211067 -7.58854049 -14.09203532 -8.40285214 0 0 Z " fill="#ffffff" transform="translate(335.625,237.5625)"/>
<path d="M0 0 C8.36065267 6.72349064 12.99855748 16.05091125 14.7421875 26.52734375 C15.76423149 38.25651522 13.41002628 49.4759212 5.91796875 58.796875 C-0.32630556 65.4091812 -7.39121368 69.51973633 -16.6015625 69.92211914 C-26.55261612 70.12517819 -33.94173152 68.19640171 -41.6328125 61.44140625 C-49.62928081 53.06275379 -53.15856349 43.04070369 -53.29296875 31.51171875 C-52.65451181 19.36546474 -47.90017035 9.58763505 -39.1875 1.13671875 C-28.03045642 -8.16834593 -11.87768659 -7.7472108 0 0 Z " fill="#ffffff" transform="translate(213.2578125,237.47265625)"/>
</svg>
