<svg xmlns="http://www.w3.org/2000/svg" viewBox="0 0 448 512"><!--!Font Awesome Free 6.6.0 by @fontawesome - https://fontawesome.com License - https://fontawesome.com/license/free Copyright 2024 Fonticons, Inc.--><path fill="#ffffff" d="M400 32H48C21.5 32 0 53.5 0 80v352c0 26.5 21.5 48 48 48h352c26.5 0 48-21.5 48-48V80c0-26.5-21.5-48-48-48zM218 271.7L64.2 172.4C66 156.4 79.5 144 96 144l256 0c16.5 0 30 12.4 31.8 28.4L230 271.7c-1.8 1.2-3.9 1.8-6 1.8s-4.2-.6-6-1.8zm29.4 26.9L384 210.4 384 336c0 17.7-14.3 32-32 32L96 368c-17.7 0-32-14.3-32-32l0-125.6 136.6 88.2c7 4.5 15.1 6.9 23.4 6.9s16.4-2.4 23.4-6.9z"/></svg>
