<svg aria-hidden="true" focusable="false" data-prefix="fab" data-icon="imessage-square" role="img" xmlns="http://www.w3.org/2000/svg" viewBox="0 0 448 512" class="svg-inline--fa fa-chat-square fa-w-14 fa-9x"><path fill="#ffffff" d="M 230 100 a 169.9481 141.5554 0 0 0 -169.9467 141.554 a 169.9481 141.5554 0 0 0 82.5622 121.2099 a 191.5571 141.5554 0 0 1 -29.7164 41.5961 a 167.0018 141.5554 0 0 0 69.0228 -27.1159 a 169.9481 141.5554 0 0 0 48.0781 5.8639 a 169.9481 141.5554 0 0 0 169.9467 -141.554 a 169.9481 141.5554 0 0 0 -169.9467 -141.554 z M 448 80 v 352 c 0 26.5 -21.5 48 -48 48 H 48 c -26.5 0 -48 -21.5 -48 -48 V 80 c 0 -26.5 21.5 -48 48 -48 h 352 c 26.5 0 48 21.5 48 48 z M 180 240 c 0 -14.9 -11.9 -26.8 -26.5 -26.8 c -14.9 0 -26.8 11.9 -26.8 26.8 c 0 14.6 11.9 26.5 26.8 26.5 c 14.6 0 26.5 -11.9 26.5 -26.5 z m 53 -26.8 c -14.6 0 -26.5 11.9 -26.5 26.8 c 0 14.6 11.9 26.5 26.5 26.5 c 14.9 0 26.8 -11.9 26.8 -26.5 c 0 -14.9 -11.9 -26.8 -26.8 -26.8 m 75 0 c -14.6 0 -26.5 11.9 -26.5 26.8 c 0 14.6 11.9 26.5 26.5 26.5 c 14.9 0 26.8 -11.9 26.8 -26.5 c 0 -14.9 -11.9 -26.8 -26.8 -26.8 z" class=""></path></svg>
