<svg aria-hidden="true" focusable="false" data-prefix="fab" data-icon="keybase-square" role="img" xmlns="http://www.w3.org/2000/svg" viewBox="0 0 448 512" class="svg-inline--fa fa-keybase-square fa-w-14 fa-9x"><path fill="#ffffff" d="M400 32C426.5 32 448 53.5 448 80V432C448 458.5 426.5 480 400 480H48C21.5 480 0 458.5 0 432V80C0 53.5 21.5 32 48 32H400ZM276.064 359.48a12.96 12.96 90 1012.96 12.96 12.96 12.96 90 00-12.96-12.96zm80.568-106.272c-6.84-10.512-28.368-37.8-62.856-53.064q-6.552-2.952-13.248-5.256a56.448 56.448 90 00-34.488-74.952c-8.928-2.952-16.776-4.32-23.328-4.176-.432-1.44-1.368-7.92 6.768-25.2L213.064 80.84l-3.96 5.472c-6.264 8.712-12.168 16.992-17.496 25.128a36.72 36.72 90 00-5.976-.936c-29.88-1.8-28.08-1.656-29.592-1.656-36.432 0-36.576 37.512-36.576 33.048l-1.728 26.424c-1.152 19.44 14.256 36.144 34.272 37.368l6.408.36a154.08 154.08 90 00-33.336 25.56C80.08 277.184 80.08 327.08 80.08 367.256v24.192l16.776-21.456a106.992 106.992 90 0010.512 27.072c4.176 7.272 10.728 6.84 14.112 5.256 3.024-1.368 7.2-4.968 2.736-14.472a128.376 128.376 90 01-11.376-38.232l33.696-43.056-17.784 53.352c41.904-30.528 113.328-44.496 170.136-27.792 24.624 7.272 48.6.504 60.984-17.136.504-.72.864-1.584 1.368-2.304a112.392 112.392 90 012.016 20.448c0 16.776-2.664 38.088-10.728 58.752-1.8 4.68 1.296 10.44 6.192 11.304 5.328 1.152 11.016-2.232 13.248-8.064C378.88 376.76 382.48 355.88 382.48 333.056c0-27.792-9.36-55.8-25.848-79.848zM172.528 150.392l-11.304-.648-1.008 15.696 9.432.576a66.96 66.96 90 00.216 14.112l-16.128-.936a8.856 8.856 90 01-8.496-9.216L147.04 143.48c.72-8.784 10.008-8.136 9.576-8.136l20.952 1.224a103.968 103.968 90 00-5.04 13.824zm106.848 123.984a7.56 7.56 90 01-10.368-1.008l-6.984-8.28-24.768 19.44a5.832 5.832 90 01-7.992-.792l-11.376-13.392a5.328 5.328 90 01.936-7.416l24.912-19.584-10.152-12.024-12.312 9.72a5.616 5.616 90 01-7.632-.72s-2.664-3.168-2.736-3.24a5.328 5.328 90 011.008-7.416L224.08 219.944s-13.32-15.84-13.392-15.912a6.912 6.912 90 011.224-9.648 7.488 7.488 90 0110.296 1.008l58.392 69.336a6.912 6.912 90 01-1.224 9.648zM204.928 359.48a12.96 12.96 90 1012.96 12.96 12.96 12.96 90 00-12.96-12.96z" class=""></path></svg>
