<?xml version="1.0" standalone="no"?>
<!DOCTYPE svg PUBLIC "-//W3C//DTD SVG 20010904//EN"
 "http://www.w3.org/TR/2001/REC-SVG-20010904/DTD/svg10.dtd">
<svg version="1.0" xmlns="http://www.w3.org/2000/svg"
 width="1267.000000pt" height="800.000000pt" viewBox="0 0 1267.000000 800.000000"
 preserveAspectRatio="xMidYMid meet">
<metadata>
Created by potrace 1.15, written by Peter Selinger 2001-2017
</metadata>
<g transform="translate(0.000000,800.000000) scale(0.100000,-0.100000)"
fill="#000000" stroke="none">
<path d="M643 6006 c-162 -40 -303 -168 -365 -332 l-23 -59 0 -1440 0 -1440
23 -59 c64 -169 213 -300 380 -335 37 -8 492 -11 1540 -11 1291 0 1495 2 1551
15 178 42 321 182 375 364 14 49 16 203 16 1466 0 1263 -2 1417 -16 1466 -54
182 -197 322 -375 364 -56 13 -259 15 -1559 14 -1160 -1 -1507 -4 -1547 -13z
m1895 -637 c110 -54 161 -139 169 -281 l6 -88 97 0 97 0 5 84 c13 195 131 316
309 316 65 0 85 -4 137 -31 108 -54 166 -147 166 -269 0 -88 -22 -145 -80
-210 -60 -66 -122 -92 -232 -98 l-93 -5 3 -101 3 -101 95 -5 c81 -5 103 -10
149 -35 101 -55 154 -147 155 -265 1 -62 -4 -85 -27 -131 -71 -145 -235 -213
-381 -159 -125 47 -193 149 -203 301 l-6 89 -97 0 -98 0 -4 -87 c-5 -103 -30
-168 -86 -226 -122 -127 -312 -128 -438 -3 -148 149 -102 403 90 492 41 19 68
24 139 24 l87 0 0 104 0 104 -88 4 c-71 3 -100 10 -145 32 -230 112 -225 444
7 552 79 37 183 34 264 -7z"/>
<path d="M2354 5189 c-54 -27 -70 -110 -30 -156 22 -25 32 -28 100 -33 l76 -5
0 68 c0 79 -9 101 -50 122 -33 17 -65 18 -96 4z"/>
<path d="M3171 5186 c-36 -20 -50 -55 -51 -123 l0 -63 71 0 c65 0 73 2 100 29
81 81 -19 213 -120 157z"/>
<path d="M2712 4688 l3 -103 98 -3 97 -3 0 106 0 105 -100 0 -101 0 3 -102z"/>
<path d="M2354 4369 c-11 -6 -28 -23 -37 -39 -43 -72 2 -150 86 -150 38 0 49
5 71 31 23 26 26 40 26 100 l0 69 -62 -1 c-35 0 -72 -5 -84 -10z"/>
<path d="M3120 4309 c0 -65 2 -73 29 -100 63 -63 171 -20 171 68 -1 70 -46
103 -139 103 l-61 0 0 -71z"/>
<path d="M4783 6005 c-86 -24 -154 -64 -224 -134 -70 -70 -106 -129 -136 -226
-17 -57 -18 -130 -18 -1475 l0 -1415 23 -65 c58 -161 169 -273 332 -332 l65
-23 1520 0 1520 0 70 22 c133 42 238 129 303 251 66 123 63 46 60 1599 l-3
1408 -23 59 c-48 129 -131 226 -238 283 -125 67 -23 63 -1689 62 -1266 0
-1518 -3 -1562 -14z m1802 -955 l190 -355 429 -5 428 -5 24 -28 c35 -41 33
-99 -5 -138 l-29 -29 -485 0 -484 0 -189 353 -189 352 -130 5 c-78 3 -139 10
-152 18 -25 14 -53 61 -53 89 0 27 37 83 63 93 12 5 105 8 207 7 l185 -2 190
-355z m1033 349 c86 -30 83 -156 -5 -190 -14 -5 -214 -9 -464 -9 -363 0 -446
3 -475 15 -73 30 -79 134 -10 176 29 18 55 19 477 19 292 0 457 -4 477 -11z"/>
<path d="M8933 6005 c-86 -24 -154 -64 -224 -134 -70 -70 -106 -129 -136 -226
-17 -57 -18 -130 -18 -1470 l0 -1410 22 -71 c42 -131 137 -245 255 -305 122
-61 43 -59 1668 -59 1625 0 1546 -2 1668 59 118 60 213 174 255 305 l22 71 0
1410 c0 1340 -1 1413 -18 1470 -30 97 -66 156 -136 226 -72 72 -138 111 -228
134 -83 22 -3049 21 -3130 0z m899 -1426 c184 -39 286 -186 288 -416 l0 -33
-281 0 -281 0 7 -37 c19 -108 106 -166 223 -148 37 5 55 15 84 46 l37 39 97 0
97 0 -7 -31 c-14 -74 -119 -174 -209 -201 -23 -7 -89 -13 -147 -13 -97 0 -110
3 -172 32 -86 41 -149 103 -179 179 -20 51 -23 76 -23 184 0 150 19 210 91
290 90 100 227 140 375 109z m792 0 c117 -24 191 -91 214 -197 l10 -42 -98 0
-98 0 -19 38 c-23 47 -73 66 -149 56 -64 -8 -100 -39 -90 -78 8 -32 39 -46
185 -80 130 -30 195 -61 239 -110 30 -34 52 -90 52 -132 0 -52 -33 -127 -73
-167 -55 -54 -120 -78 -234 -84 -204 -12 -333 49 -378 178 -8 23 -15 52 -15
65 0 24 1 24 99 24 95 0 99 -1 105 -23 17 -69 96 -106 197 -92 53 7 99 39 99
68 0 38 -36 57 -184 97 -82 23 -165 49 -185 60 -131 67 -146 237 -29 346 80
76 207 102 352 73z m875 -21 c29 -11 70 -37 91 -58 40 -40 80 -130 80 -180 l0
-30 -95 0 -95 0 -22 48 c-42 86 -148 108 -217 43 -91 -85 -77 -366 21 -417 33
-17 108 -18 142 -2 24 10 66 79 66 106 0 9 30 12 101 12 l102 0 -6 -36 c-15
-91 -89 -189 -175 -231 -52 -26 -67 -28 -167 -28 -94 0 -117 3 -162 24 -152
68 -225 273 -178 495 32 151 130 251 274 276 65 12 176 1 240 -22z"/>
<path d="M9648 4404 c-31 -16 -78 -90 -78 -122 0 -22 2 -22 171 -22 l171 0 -7
33 c-8 41 -33 76 -75 105 -39 26 -138 30 -182 6z"/>
<path d="M5897 1890 c-58 -51 -55 -129 8 -178 51 -41 140 -21 170 38 59 115
-81 226 -178 140z"/>
<path d="M6820 1655 l0 -216 -53 55 c-66 67 -136 92 -226 82 -185 -21 -291
-171 -291 -411 0 -150 39 -255 121 -329 117 -105 293 -103 402 6 26 26 50 48
52 48 3 0 5 -27 5 -60 l0 -60 100 0 100 0 0 550 0 550 -105 0 -105 0 0 -215z
m-131 -255 c19 -5 50 -24 68 -42 93 -90 82 -326 -18 -401 -29 -21 -103 -33
-143 -23 -38 9 -87 56 -107 101 -58 135 -17 310 84 356 48 21 68 23 116 9z"/>
<path d="M925 1561 c-109 -37 -179 -103 -218 -208 -19 -49 -22 -78 -22 -188 1
-158 19 -215 96 -299 58 -63 119 -93 220 -105 214 -27 379 71 414 247 l7 32
-101 0 c-99 0 -101 0 -107 -25 -10 -39 -67 -83 -118 -90 -119 -18 -192 56
-203 207 -14 191 69 302 209 277 53 -9 84 -32 104 -79 l18 -40 99 0 99 0 -7
33 c-25 116 -102 203 -212 237 -82 25 -207 26 -278 1z"/>
<path d="M1936 1568 c-37 -10 -107 -69 -133 -113 -10 -17 -12 -9 -12 48 l-1
67 -100 0 -100 0 0 -400 0 -400 105 0 105 0 0 244 c0 259 3 282 47 328 36 37
84 52 171 50 l72 -1 0 88 c0 83 -1 89 -22 95 -32 8 -86 6 -132 -6z"/>
<path d="M2465 1566 c-111 -35 -197 -114 -236 -214 -27 -71 -37 -220 -19 -301
16 -74 64 -164 109 -203 143 -126 418 -121 550 11 70 70 111 182 111 304 0
261 -149 418 -395 416 -44 0 -98 -6 -120 -13z m210 -177 c32 -19 68 -74 79
-123 11 -47 8 -172 -6 -217 -17 -58 -73 -115 -121 -124 -82 -16 -159 26 -190
103 -48 119 -20 299 55 355 51 38 126 41 183 6z"/>
<path d="M3499 1567 c-54 -20 -93 -51 -114 -91 -11 -20 -23 -36 -27 -36 -5 0
-8 29 -8 65 l0 65 -100 0 -100 0 0 -400 0 -400 105 0 105 0 0 261 c0 247 1
263 21 299 28 50 72 74 135 74 56 0 93 -18 121 -61 16 -24 18 -59 21 -300 l3
-273 105 0 104 0 0 288 c0 318 -5 355 -60 430 -43 60 -98 85 -195 89 -51 2
-93 -2 -116 -10z"/>
<path d="M4305 1566 c-111 -35 -197 -114 -236 -214 -27 -71 -37 -220 -19 -301
16 -74 64 -164 109 -203 143 -126 418 -121 550 11 70 70 111 182 111 304 0
261 -149 418 -395 416 -44 0 -98 -6 -120 -13z m210 -177 c32 -19 68 -74 79
-123 11 -47 8 -172 -6 -217 -17 -58 -73 -115 -121 -124 -82 -16 -159 26 -190
103 -48 119 -20 299 55 355 51 38 126 41 183 6z"/>
<path d="M5205 1561 c-109 -37 -179 -103 -218 -208 -19 -49 -22 -78 -22 -188
1 -158 19 -215 96 -299 58 -63 119 -93 220 -105 214 -27 379 71 414 247 l7 32
-101 0 c-99 0 -101 0 -107 -25 -10 -39 -67 -83 -118 -90 -119 -18 -192 56
-203 207 -14 191 69 302 209 277 53 -9 84 -32 104 -79 l18 -40 99 0 99 0 -7
33 c-25 116 -102 203 -212 237 -82 25 -207 26 -278 1z"/>
<path d="M7463 1561 c-97 -33 -179 -116 -220 -221 -13 -34 -17 -77 -17 -175
-1 -157 17 -214 95 -299 57 -62 116 -91 216 -106 193 -27 385 66 418 203 l7
27 -97 0 c-93 0 -97 -1 -120 -28 -40 -48 -142 -67 -208 -38 -61 26 -107 98
-107 167 l0 29 270 0 270 0 0 73 c0 153 -68 287 -174 343 -86 46 -237 58 -333
25z m221 -160 c39 -22 63 -57 75 -108 l9 -43 -170 0 -171 0 6 36 c18 112 149
172 251 115z"/>
<path d="M8865 1561 c-109 -37 -179 -103 -218 -208 -19 -49 -22 -78 -22 -188
1 -158 19 -215 96 -299 58 -63 119 -93 220 -105 214 -27 379 71 414 247 l7 32
-101 0 c-99 0 -101 0 -107 -25 -10 -39 -67 -83 -118 -90 -119 -18 -192 56
-203 207 -14 191 69 302 209 277 53 -9 84 -32 104 -79 l18 -40 99 0 99 0 -7
33 c-25 116 -102 203 -212 237 -82 25 -207 26 -278 1z"/>
<path d="M9755 1566 c-111 -35 -197 -114 -236 -214 -27 -71 -37 -220 -19 -301
16 -74 64 -164 109 -203 143 -126 418 -121 550 11 70 70 111 182 111 304 0
261 -149 418 -395 416 -44 0 -98 -6 -120 -13z m210 -177 c32 -19 68 -74 79
-123 11 -47 8 -172 -6 -217 -17 -58 -73 -115 -121 -124 -82 -16 -159 26 -190
103 -48 119 -20 299 55 355 51 38 126 41 183 6z"/>
<path d="M10774 1556 c-50 -23 -87 -60 -99 -97 -13 -39 -25 -17 -25 46 l0 65
-100 0 -100 0 0 -400 0 -400 105 0 105 0 0 269 c0 262 1 269 23 302 44 66 130
86 193 44 49 -32 54 -62 54 -350 l0 -265 100 0 100 0 0 263 c0 287 4 308 62
351 34 24 113 27 152 6 53 -28 56 -45 56 -345 l0 -275 105 0 105 0 0 308 c-1
330 -3 350 -54 417 -45 58 -97 80 -196 80 -106 0 -167 -26 -213 -92 -17 -23
-33 -43 -36 -43 -3 1 -19 20 -34 45 -57 90 -193 122 -303 71z"/>
<path d="M5870 1170 l0 -400 105 0 105 0 -2 398 -3 397 -102 3 -103 3 0 -401z"/>
<path d="M8235 986 c-52 -23 -70 -52 -70 -111 0 -43 5 -59 24 -79 35 -38 91
-52 140 -37 57 17 81 52 81 117 0 45 -4 57 -29 82 -42 41 -94 51 -146 28z"/>
</g>
</svg>
