<svg xmlns="http://www.w3.org/2000/svg" viewBox="0 0 448 512">
	<path d="M448 80v352c0 26.5-21.5 48-48 48h-352c-26.5 0-48-21.5-48-48v-352c0-26.5 21.5-48 48-48h352c26.5 0 48 21.5 48 48zM350.8 220.8c0-40.9 0-81.6 0-122.4 0-1.5-.1-3.1-.3-4.7-.6-6.7-5.2-10.9-11.8-10.3-4.8.4-9.5 1.4-14.2 2.3-14.3 2.9-28.6 5.8-42.9 8.6l-48.4 9.8c-15.7 3.1-31.2 6.2-46.9 9.4-5.5 1.2-11.1 2.2-16.5 3.6-5.9 1.4-10.2 4.9-11.7 11-.6 2.6-.9 5.2-.9 7.9 0 63.2 0 126.3 0 189.5v3.2c-.4 8.3-4.6 13.5-12.8 15.2-6 1.2-12.2 2.5-18.3 3.7-8.1 1.7-16 3.4-23.7 6.6-19.7 8.3-27.6 27-24.6 44.3 3.5 20.1 20.5 33.7 40.9 32.9 7.8-.3 15.5-1.5 23-3.7 14.2-4 24.7-12.6 30.6-26.3 3.6-8.4 4.6-17.2 4.6-26.2.1-55.5 0-111 .1-166.5v-2.7c.3-6.2 2.4-8.8 8.3-10.5l1.1-.3 78.9-15.9c16.2-3.3 32.4-6.5 48.7-9.7 3.4-.7 6.7-1.2 10.1-1.4 3.3-.2 5.7 1.8 6.5 5l.6 3.9c0 38.7 0 77.5 0 116.2l-.4 4.1c-1.2 6.1-5 9.7-10.9 11-8 1.9-16.1 3.5-24.2 5.2-7.5 1.5-14.9 3.5-21.7 6.8-17.4 8.5-25.3 26.7-22.2 43.2 3.6 20 21.2 33.7 41.4 32.7 7.7-.4 15.4-1.5 22.8-3.7 13.4-3.8 23.4-11.7 29.6-24.3 4-8 5.2-16.8 5.2-25.7v-121.8z" fill="#ffffff"/>
</svg>
